<svg
  xmlns="http://www.w3.org/2000/svg"
  viewBox="0 0 100 100"
  width="100"
  height="100"
>
  <!-- 背景圆形 -->
  <circle cx="50" cy="50" r="45" fill="#3B82F6" />

  <!-- 数据图表图标 -->
  <g fill="white">
    <!-- 柱状图 -->
    <rect x="25" y="35" width="10" height="35" rx="2" />
    <rect x="45" y="25" width="10" height="45" rx="2" />
    <rect x="65" y="40" width="10" height="30" rx="2" />

    <!-- 底线 -->
    <rect x="20" y="75" width="60" height="3" rx="1.5" />
  </g>

  <!-- 鸭子图标 -->
  <g transform="translate(60, 20) scale(0.6)">
    <path
      d="M30,10 C40,10 45,15 45,25 C45,35 40,40 30,40 C20,40 15,35 15,25 C15,15 20,10 30,10 Z"
      fill="#FFD43B"
    />
    <circle cx="25" cy="20" r="2.5" fill="#000" />
    <path
      d="M35,25 C38,25 38,30 35,30 L30,30 C27,30 27,25 30,25 Z"
      fill="#FF7700"
    />
  </g>
</svg>
